<?xml version="1.0" encoding="iso-8859-1" ?>
              <svg
                version="1.1"
                xmlns="http://www.w3.org/2000/svg"
                xmlns:xlink="http://www.w3.org/1999/xlink"
                viewBox="0 0 1254 836"
                width="1254"
                height="836"
              >
                <g transform="translate(139.537 32) scale(0.976 0.977) rotate(0 491.3524590163934 387.9119754350051)"><g clip-path="url(#clipPath__d-7HU_BgX6hbi8ypsVTa)"><defs>
          <clipPath id="clipPath__d-7HU_BgX6hbi8ypsVTa">
            <rect x="0" y="0" width="982.8" height="776.2" />
          </clipPath>
       </defs>  <g>  <g>   <g>    <g>     <g>      <g>       <circle cx="439.2" cy="340.6" r="5" fill="#383A48"/>      </g>     </g>     <g>      <g>       <circle cx="439.2" cy="365.3" r="5" fill="#383A48"/>      </g>     </g>     <g>      <g>       <circle cx="439.2" cy="389.9" r="5" fill="#383A48"/>      </g>     </g>     <g>      <g>       <circle cx="439.2" cy="414.6" r="5" fill="#383A48"/>      </g>     </g>     <g>      <g>       <circle cx="439.2" cy="439.3" r="5" fill="#383A48"/>      </g>     </g>     <g>      <g>       <circle cx="439.2" cy="463.9" r="5" fill="#383A48"/>      </g>     </g>     <g>      <g>       <circle cx="439.2" cy="488.6" r="5" fill="#383A48"/>      </g>     </g>     <g>      <g>       <circle cx="439.2" cy="513.3" r="5" fill="#383A48"/>      </g>     </g>     <g>      <g>       <circle cx="439.2" cy="537.9" r="5" fill="#383A48"/>      </g>     </g>     <g>      <g>       <circle cx="439.2" cy="562.6" r="5" fill="#383A48"/>      </g>     </g>     <g>      <g>       <circle cx="439.2" cy="587.3" r="5" fill="#383A48"/>      </g>     </g>     <g>      <g>       <circle cx="439.2" cy="611.9" r="5" fill="#383A48"/>      </g>     </g>     <g>      <g>       <circle cx="439.2" cy="636.6" r="5" fill="#383A48"/>      </g>     </g>     <g>      <g>       <circle cx="439.2" cy="661.3" r="5" fill="#383A48"/>      </g>     </g>     <g>      <g>       <circle cx="439.2" cy="685.9" r="5" fill="#383A48"/>      </g>     </g>     <g>      <g>       <circle cx="439.2" cy="710.6" r="5" fill="#383A48"/>      </g>     </g>     <g>      <g>       <circle cx="439.2" cy="735.3" r="5" fill="#383A48"/>      </g>     </g>     <g>      <g>       <circle cx="439.2" cy="759.9" r="5" fill="#383A48"/>      </g>     </g>     <g>      <g>       <circle cx="414.5" cy="340.6" r="5" fill="#383A48"/>      </g>     </g>     <g>      <g>       <circle cx="414.5" cy="365.3" r="5" fill="#383A48"/>      </g>     </g>     <g>      <g>       <circle cx="414.5" cy="389.9" r="5" fill="#383A48"/>      </g>     </g>     <g>      <g>       <circle cx="414.5" cy="414.6" r="5" fill="#383A48"/>      </g>     </g>     <g>      <g>       <circle cx="414.5" cy="439.3" r="5" fill="#383A48"/>      </g>     </g>     <g>      <g>       <circle cx="414.5" cy="463.9" r="5" fill="#383A48"/>      </g>     </g>     <g>      <g>       <circle cx="414.5" cy="488.6" r="5" fill="#383A48"/>      </g>     </g>     <g>      <g>       <circle cx="414.5" cy="513.3" r="5" fill="#383A48"/>      </g>     </g>     <g>      <g>       <circle cx="414.5" cy="537.9" r="5" fill="#383A48"/>      </g>     </g>     <g>      <g>       <circle cx="414.5" cy="562.6" r="5" fill="#383A48"/>      </g>     </g>     <g>      <g>       <circle cx="414.5" cy="587.3" r="5" fill="#383A48"/>      </g>     </g>     <g>      <g>       <circle cx="414.5" cy="611.9" r="5" fill="#383A48"/>      </g>     </g>     <g>      <g>       <circle cx="414.5" cy="636.6" r="5" fill="#383A48"/>      </g>     </g>     <g>      <g>       <circle cx="414.5" cy="661.3" r="5" fill="#383A48"/>      </g>     </g>     <g>      <g>       <circle cx="414.5" cy="685.9" r="5" fill="#383A48"/>      </g>     </g>     <g>      <g>       <circle cx="414.5" cy="710.6" r="5" fill="#383A48"/>      </g>     </g>     <g>      <g>       <circle cx="414.5" cy="735.3" r="5" fill="#383A48"/>      </g>     </g>     <g>      <g>       <circle cx="414.5" cy="759.9" r="5" fill="#383A48"/>      </g>     </g>     <g>      <g>       <circle cx="389.8" cy="340.6" r="5" fill="#383A48"/>      </g>     </g>     <g>      <g>       <circle cx="389.8" cy="365.3" r="5" fill="#383A48"/>      </g>     </g>     <g>      <g>       <circle cx="389.8" cy="389.9" r="5" fill="#383A48"/>      </g>     </g>     <g>      <g>       <circle cx="389.8" cy="414.6" r="5" fill="#383A48"/>      </g>     </g>     <g>      <g>       <circle cx="389.8" cy="439.3" r="5" fill="#383A48"/>      </g>     </g>     <g>      <g>       <circle cx="389.8" cy="463.9" r="5" fill="#383A48"/>      </g>     </g>     <g>      <g>       <circle cx="389.8" cy="488.6" r="5" fill="#383A48"/>      </g>     </g>     <g>      <g>       <circle cx="389.8" cy="513.3" r="5" fill="#383A48"/>      </g>     </g>     <g>      <g>       <circle cx="389.8" cy="537.9" r="5" fill="#383A48"/>      </g>     </g>     <g>      <g>       <circle cx="389.8" cy="562.6" r="5" fill="#383A48"/>      </g>     </g>     <g>      <g>       <circle cx="389.8" cy="587.3" r="5" fill="#383A48"/>      </g>     </g>     <g>      <g>       <circle cx="389.8" cy="611.9" r="5" fill="#383A48"/>      </g>     </g>     <g>      <g>       <circle cx="389.8" cy="636.6" r="5" fill="#383A48"/>      </g>     </g>     <g>      <g>       <circle cx="389.8" cy="661.3" r="5" fill="#383A48"/>      </g>     </g>     <g>      <g>       <circle cx="389.8" cy="685.9" r="5" fill="#383A48"/>      </g>     </g>     <g>      <g>       <circle cx="389.8" cy="710.6" r="5" fill="#383A48"/>      </g>     </g>     <g>      <g>       <circle cx="389.8" cy="735.3" r="5" fill="#383A48"/>      </g>     </g>     <g>      <g>       <circle cx="389.8" cy="759.9" r="5" fill="#383A48"/>      </g>     </g>     <g>      <g>       <circle cx="365.2" cy="340.6" r="5" fill="#383A48"/>      </g>     </g>     <g>      <g>       <circle cx="365.2" cy="365.3" r="5" fill="#383A48"/>      </g>     </g>     <g>      <g>       <circle cx="365.2" cy="389.9" r="5" fill="#383A48"/>      </g>     </g>     <g>      <g>       <circle cx="365.2" cy="414.6" r="5" fill="#383A48"/>      </g>     </g>     <g>      <g>       <circle cx="365.2" cy="439.3" r="5" fill="#383A48"/>      </g>     </g>     <g>      <g>       <circle cx="365.2" cy="463.9" r="5" fill="#383A48"/>      </g>     </g>     <g>      <g>       <circle cx="365.2" cy="488.6" r="5" fill="#383A48"/>      </g>     </g>     <g>      <g>       <circle cx="365.2" cy="513.3" r="5" fill="#383A48"/>      </g>     </g>     <g>      <g>       <circle cx="365.2" cy="537.9" r="5" fill="#383A48"/>      </g>     </g>     <g>      <g>       <circle cx="365.2" cy="562.6" r="5" fill="#383A48"/>      </g>     </g>     <g>      <g>       <circle cx="365.2" cy="587.3" r="5" fill="#383A48"/>      </g>     </g>     <g>      <g>       <circle cx="365.2" cy="611.9" r="5" fill="#383A48"/>      </g>     </g>     <g>      <g>       <circle cx="365.2" cy="636.6" r="5" fill="#383A48"/>      </g>     </g>     <g>      <g>       <circle cx="365.2" cy="661.3" r="5" fill="#383A48"/>      </g>     </g>     <g>      <g>       <circle cx="365.2" cy="685.9" r="5" fill="#383A48"/>      </g>     </g>     <g>      <g>       <circle cx="365.2" cy="710.6" r="5" fill="#383A48"/>      </g>     </g>     <g>      <g>       <circle cx="365.2" cy="735.3" r="5" fill="#383A48"/>      </g>     </g>     <g>      <g>       <circle cx="365.2" cy="759.9" r="5" fill="#383A48"/>      </g>     </g>     <g>      <g>       <circle cx="340.5" cy="340.6" r="5" fill="#383A48"/>      </g>     </g>     <g>      <g>       <circle cx="340.5" cy="365.3" r="5" fill="#383A48"/>      </g>     </g>     <g>      <g>       <circle cx="340.5" cy="389.9" r="5" fill="#383A48"/>      </g>     </g>     <g>      <g>       <circle cx="340.5" cy="414.6" r="5" fill="#383A48"/>      </g>     </g>     <g>      <g>       <circle cx="340.5" cy="439.3" r="5" fill="#383A48"/>      </g>     </g>     <g>      <g>       <circle cx="340.5" cy="463.9" r="5" fill="#383A48"/>      </g>     </g>     <g>      <g>       <circle cx="340.5" cy="488.6" r="5" fill="#383A48"/>      </g>     </g>     <g>      <g>       <circle cx="340.5" cy="513.3" r="5" fill="#383A48"/>      </g>     </g>     <g>      <g>       <circle cx="340.5" cy="537.9" r="5" fill="#383A48"/>      </g>     </g>     <g>      <g>       <circle cx="340.5" cy="562.6" r="5" fill="#383A48"/>      </g>     </g>     <g>      <g>       <circle cx="340.5" cy="587.3" r="5" fill="#383A48"/>      </g>     </g>     <g>      <g>       <circle cx="340.5" cy="611.9" r="5" fill="#383A48"/>      </g>     </g>     <g>      <g>       <circle cx="340.5" cy="636.6" r="5" fill="#383A48"/>      </g>     </g>     <g>      <g>       <circle cx="340.5" cy="661.3" r="5" fill="#383A48"/>      </g>     </g>     <g>      <g>       <circle cx="340.5" cy="685.9" r="5" fill="#383A48"/>      </g>     </g>     <g>      <g>       <circle cx="340.5" cy="710.6" r="5" fill="#383A48"/>      </g>     </g>     <g>      <g>       <circle cx="340.5" cy="735.3" r="5" fill="#383A48"/>      </g>     </g>     <g>      <g>       <circle cx="315.8" cy="340.6" r="5" fill="#383A48"/>      </g>     </g>     <g>      <g>       <circle cx="315.8" cy="365.3" r="5" fill="#383A48"/>      </g>     </g>     <g>      <g>       <circle cx="315.8" cy="389.9" r="5" fill="#383A48"/>      </g>     </g>     <g>      <g>       <circle cx="315.8" cy="414.6" r="5" fill="#383A48"/>      </g>     </g>     <g>      <g>       <circle cx="315.8" cy="439.3" r="5" fill="#383A48"/>      </g>     </g>     <g>      <g>       <circle cx="315.8" cy="463.9" r="5" fill="#383A48"/>      </g>     </g>     <g>      <g>       <circle cx="315.8" cy="488.6" r="5" fill="#383A48"/>      </g>     </g>     <g>      <g>       <circle cx="315.8" cy="513.3" r="5" fill="#383A48"/>      </g>     </g>     <g>      <g>       <circle cx="315.8" cy="537.9" r="5" fill="#383A48"/>      </g>     </g>     <g>      <g>       <circle cx="315.8" cy="562.6" r="5" fill="#383A48"/>      </g>     </g>     <g>      <g>       <circle cx="315.8" cy="587.3" r="5" fill="#383A48"/>      </g>     </g>     <g>      <g>       <circle cx="315.8" cy="611.9" r="5" fill="#383A48"/>      </g>     </g>     <g>      <g>       <circle cx="315.8" cy="636.6" r="5" fill="#383A48"/>      </g>     </g>     <g>      <g>       <circle cx="315.8" cy="661.3" r="5" fill="#383A48"/>      </g>     </g>     <g>      <g>       <circle cx="315.8" cy="685.9" r="5" fill="#383A48"/>      </g>     </g>     <g>      <g>       <circle cx="291.2" cy="340.6" r="5" fill="#383A48"/>      </g>     </g>     <g>      <g>       <circle cx="291.2" cy="365.3" r="5" fill="#383A48"/>      </g>     </g>     <g>      <g>       <circle cx="291.2" cy="389.9" r="5" fill="#383A48"/>      </g>     </g>     <g>      <g>       <circle cx="291.2" cy="414.6" r="5" fill="#383A48"/>      </g>     </g>     <g>      <g>       <circle cx="291.2" cy="439.3" r="5" fill="#383A48"/>      </g>     </g>     <g>      <g>       <circle cx="291.2" cy="463.9" r="5" fill="#383A48"/>      </g>     </g>     <g>      <g>       <circle cx="291.2" cy="488.6" r="5" fill="#383A48"/>      </g>     </g>     <g>      <g>       <circle cx="266.5" cy="340.6" r="5" fill="#383A48"/>      </g>     </g>     <g>      <g>       <circle cx="266.5" cy="365.3" r="5" fill="#383A48"/>      </g>     </g>     <g>      <g>       <circle cx="266.5" cy="389.9" r="5" fill="#383A48"/>      </g>     </g>     <g>      <g>       <circle cx="266.5" cy="414.6" r="5" fill="#383A48"/>      </g>     </g>     <g>      <g>       <circle cx="266.5" cy="439.3" r="5" fill="#383A48"/>      </g>     </g>     <g>      <g>       <circle cx="266.5" cy="463.9" r="5" fill="#383A48"/>      </g>     </g>     <g>      <g>       <circle cx="266.5" cy="488.6" r="5" fill="#383A48"/>      </g>     </g>     <g>      <g>       <circle cx="241.8" cy="340.6" r="5" fill="#383A48"/>      </g>     </g>     <g>      <g>       <circle cx="241.8" cy="365.3" r="5" fill="#383A48"/>      </g>     </g>     <g>      <g>       <circle cx="241.8" cy="389.9" r="5" fill="#383A48"/>      </g>     </g>     <g>      <g>       <circle cx="241.8" cy="414.6" r="5" fill="#383A48"/>      </g>     </g>     <g>      <g>       <circle cx="241.8" cy="439.3" r="5" fill="#383A48"/>      </g>     </g>     <g>      <g>       <circle cx="241.8" cy="463.9" r="5" fill="#383A48"/>      </g>     </g>     <g>      <g>       <circle cx="241.8" cy="488.6" r="5" fill="#383A48"/>      </g>     </g>     <g>      <g>       <circle cx="217.2" cy="365.3" r="5" fill="#383A48"/>      </g>     </g>     <g>      <g>       <circle cx="217.2" cy="389.9" r="5" fill="#383A48"/>      </g>     </g>     <g>      <g>       <circle cx="217.2" cy="414.6" r="5" fill="#383A48"/>      </g>     </g>     <g>      <g>       <circle cx="217.2" cy="439.3" r="5" fill="#383A48"/>      </g>     </g>     <g>      <g>       <circle cx="217.2" cy="463.9" r="5" fill="#383A48"/>      </g>     </g>    </g>    <g>     <g>      <circle cx="192.5" cy="389.9" r="5" fill="#383A48"/>     </g>    </g>    <g>     <g>      <circle cx="192.5" cy="414.6" r="5" fill="#383A48"/>     </g>    </g>   </g>  </g>  <g>   <g>    <path d="M818.2,414.8H371.7v260.8c0,52.8,42.8,95.6,95.6,95.6h255.3c52.8,0,95.6-42.8,95.6-95.6V414.8z" fill="#E0719E"/>    <path d="M722.6,776.2H467.3c-55.5,0-100.6-45.1-100.6-100.6V414.8c0-2.8,2.2-5,5-5h446.5c2.8,0,5,2.2,5,5v260.8     C823.2,731.1,778.1,776.2,722.6,776.2z M376.7,419.8v255.8c0,50,40.7,90.6,90.6,90.6h255.3c50,0,90.6-40.7,90.6-90.6V419.8H376.7     z" fill="#383A48"/>   </g>   <g>    <rect x="371.7" y="472" width="446.5" height="135.7" fill="#AAC6FC"/>    <path d="M818.2,612.8H371.7c-2.8,0-5-2.2-5-5V472c0-2.8,2.2-5,5-5h446.5c2.8,0,5,2.2,5,5v135.7     C823.2,610.5,821,612.8,818.2,612.8z M376.7,602.8h436.5V477H376.7V602.8z" fill="#383A48"/>   </g>   <g>    <g>     <g>      <g>       <circle cx="806.2" cy="515.3" r="5" fill="#383A48"/>      </g>     </g>     <g>      <g>       <circle cx="806.2" cy="539.9" r="5" fill="#383A48"/>      </g>     </g>     <g>      <g>       <circle cx="806.2" cy="564.6" r="5" fill="#383A48"/>      </g>     </g>     <g>      <g>       <circle cx="806.2" cy="589.3" r="5" fill="#383A48"/>      </g>     </g>     <g>      <g>       <circle cx="781.5" cy="515.3" r="5" fill="#383A48"/>      </g>     </g>     <g>      <g>       <circle cx="781.5" cy="539.9" r="5" fill="#383A48"/>      </g>     </g>     <g>      <g>       <circle cx="781.5" cy="564.6" r="5" fill="#383A48"/>      </g>     </g>     <g>      <g>       <circle cx="781.5" cy="589.3" r="5" fill="#383A48"/>      </g>     </g>     <g>      <g>       <circle cx="756.8" cy="515.3" r="5" fill="#383A48"/>      </g>     </g>     <g>      <g>       <circle cx="756.8" cy="539.9" r="5" fill="#383A48"/>      </g>     </g>     <g>      <g>       <circle cx="756.8" cy="564.6" r="5" fill="#383A48"/>      </g>     </g>     <g>      <g>       <circle cx="756.8" cy="589.3" r="5" fill="#383A48"/>      </g>     </g>     <g>      <g>       <circle cx="732.2" cy="515.3" r="5" fill="#383A48"/>      </g>     </g>     <g>      <g>       <circle cx="732.2" cy="539.9" r="5" fill="#383A48"/>      </g>     </g>     <g>      <g>       <circle cx="732.2" cy="564.6" r="5" fill="#383A48"/>      </g>     </g>     <g>      <g>       <circle cx="732.2" cy="589.3" r="5" fill="#383A48"/>      </g>     </g>     <g>      <g>       <circle cx="707.5" cy="515.3" r="5" fill="#383A48"/>      </g>     </g>     <g>      <g>       <circle cx="707.5" cy="539.9" r="5" fill="#383A48"/>      </g>     </g>     <g>      <g>       <circle cx="707.5" cy="564.6" r="5" fill="#383A48"/>      </g>     </g>     <g>      <g>       <circle cx="707.5" cy="589.3" r="5" fill="#383A48"/>      </g>     </g>     <g>      <g>               <ellipse transform="matrix(0.3162 -0.9487 0.9487 0.3162 -21.9237 1000.0837)" cx="682.8" cy="515.3" rx="5" ry="5" fill="#383A48"/>      </g>     </g>     <g>      <g>               <ellipse transform="matrix(0.3162 -0.9487 0.9487 0.3162 -45.2614 1016.9048)" cx="682.8" cy="539.9" rx="5" ry="5" fill="#383A48"/>      </g>     </g>     <g>      <g>               <ellipse transform="matrix(0.3162 -0.9487 0.9487 0.3162 -68.694 1033.7942)" cx="682.8" cy="564.6" rx="5" ry="5" fill="#383A48"/>      </g>     </g>     <g>      <g>               <ellipse transform="matrix(0.3162 -0.9487 0.9487 0.3162 -92.1266 1050.6837)" cx="682.8" cy="589.3" rx="5" ry="5" fill="#383A48"/>      </g>     </g>     <g>      <g>       <circle cx="658.2" cy="515.3" r="5" fill="#383A48"/>      </g>     </g>     <g>      <g>       <circle cx="658.2" cy="539.9" r="5" fill="#383A48"/>      </g>     </g>     <g>      <g>       <circle cx="658.2" cy="564.6" r="5" fill="#383A48"/>      </g>     </g>     <g>      <g>       <circle cx="658.2" cy="589.3" r="5" fill="#383A48"/>      </g>     </g>     <g>      <g>       <circle cx="633.5" cy="515.3" r="5" fill="#383A48"/>      </g>     </g>     <g>      <g>       <circle cx="633.5" cy="539.9" r="5" fill="#383A48"/>      </g>     </g>     <g>      <g>       <circle cx="633.5" cy="564.6" r="5" fill="#383A48"/>      </g>     </g>     <g>      <g>       <circle cx="633.5" cy="589.3" r="5" fill="#383A48"/>      </g>     </g>     <g>      <g>       <circle cx="608.8" cy="515.3" r="5" fill="#383A48"/>      </g>     </g>     <g>      <g>       <circle cx="608.8" cy="539.9" r="5" fill="#383A48"/>      </g>     </g>     <g>      <g>       <circle cx="608.8" cy="564.6" r="5" fill="#383A48"/>      </g>     </g>     <g>      <g>       <circle cx="608.8" cy="589.3" r="5" fill="#383A48"/>      </g>     </g>     <g>      <g>       <circle cx="584.2" cy="515.3" r="5" fill="#383A48"/>      </g>     </g>     <g>      <g>       <circle cx="584.2" cy="539.9" r="5" fill="#383A48"/>      </g>     </g>     <g>      <g>       <circle cx="584.2" cy="564.6" r="5" fill="#383A48"/>      </g>     </g>     <g>      <g>       <circle cx="584.2" cy="589.3" r="5" fill="#383A48"/>      </g>     </g>     <g>      <g>       <circle cx="559.5" cy="515.3" r="5" fill="#383A48"/>      </g>     </g>     <g>      <g>       <circle cx="559.5" cy="539.9" r="5" fill="#383A48"/>      </g>     </g>     <g>      <g>       <circle cx="559.5" cy="564.6" r="5" fill="#383A48"/>      </g>     </g>     <g>      <g>       <circle cx="559.5" cy="589.3" r="5" fill="#383A48"/>      </g>     </g>     <g>      <g>       <circle cx="534.8" cy="515.3" r="5" fill="#383A48"/>      </g>     </g>     <g>      <g>       <circle cx="534.8" cy="539.9" r="5" fill="#383A48"/>      </g>     </g>     <g>      <g>       <circle cx="534.8" cy="564.6" r="5" fill="#383A48"/>      </g>     </g>     <g>      <g>       <circle cx="534.8" cy="589.3" r="5" fill="#383A48"/>      </g>     </g>     <g>      <g>       <circle cx="510.2" cy="515.3" r="5" fill="#383A48"/>      </g>     </g>     <g>      <g>       <circle cx="510.2" cy="539.9" r="5" fill="#383A48"/>      </g>     </g>     <g>      <g>       <circle cx="510.2" cy="564.6" r="5" fill="#383A48"/>      </g>     </g>     <g>      <g>       <circle cx="510.2" cy="589.3" r="5" fill="#383A48"/>      </g>     </g>     <g>      <g>       <circle cx="485.5" cy="515.3" r="5" fill="#383A48"/>      </g>     </g>     <g>      <g>       <circle cx="485.5" cy="539.9" r="5" fill="#383A48"/>      </g>     </g>     <g>      <g>       <circle cx="485.5" cy="564.6" r="5" fill="#383A48"/>      </g>     </g>     <g>      <g>       <circle cx="485.5" cy="589.3" r="5" fill="#383A48"/>      </g>     </g>     <g>      <g>       <circle cx="460.8" cy="515.3" r="5" fill="#383A48"/>      </g>     </g>     <g>      <g>       <circle cx="460.8" cy="539.9" r="5" fill="#383A48"/>      </g>     </g>     <g>      <g>       <circle cx="460.8" cy="564.6" r="5" fill="#383A48"/>      </g>     </g>     <g>      <g>       <circle cx="460.8" cy="589.3" r="5" fill="#383A48"/>      </g>     </g>     <g>      <g>       <circle cx="436.2" cy="515.3" r="5" fill="#383A48"/>      </g>     </g>     <g>      <g>       <circle cx="436.2" cy="539.9" r="5" fill="#383A48"/>      </g>     </g>     <g>      <g>       <circle cx="436.2" cy="564.6" r="5" fill="#383A48"/>      </g>     </g>     <g>      <g>       <circle cx="436.2" cy="589.3" r="5" fill="#383A48"/>      </g>     </g>     <g>      <g>       <circle cx="411.5" cy="515.3" r="5" fill="#383A48"/>      </g>     </g>     <g>      <g>       <circle cx="411.5" cy="539.9" r="5" fill="#383A48"/>      </g>     </g>     <g>      <g>       <circle cx="411.5" cy="564.6" r="5" fill="#383A48"/>      </g>     </g>     <g>      <g>       <circle cx="411.5" cy="589.3" r="5" fill="#383A48"/>      </g>     </g>     <g>      <g>       <circle cx="386.8" cy="515.3" r="5" fill="#383A48"/>      </g>     </g>     <g>      <g>       <circle cx="386.8" cy="539.9" r="5" fill="#383A48"/>      </g>     </g>     <g>      <g>       <circle cx="386.8" cy="564.6" r="5" fill="#383A48"/>      </g>     </g>     <g>      <g>       <circle cx="386.8" cy="589.3" r="5" fill="#383A48"/>      </g>     </g>    </g>   </g>   <g>    <path d="M854,498.4H335.9c-48.9,0-88.6-39.7-88.6-88.6l0,0c0-48.9,39.7-88.6,88.6-88.6h518.2     c48.9,0,88.6,39.7,88.6,88.6l0,0C942.6,458.7,903,498.4,854,498.4z" fill="#E0719E"/>    <path d="M854,503.4H335.9c-51.6,0-93.6-42-93.6-93.6s42-93.6,93.6-93.6h518.2c51.6,0,93.6,42,93.6,93.6     S905.7,503.4,854,503.4z M335.9,326.2c-46.1,0-83.6,37.5-83.6,83.6s37.5,83.6,83.6,83.6h518.2c46.1,0,83.6-37.5,83.6-83.6     s-37.5-83.6-83.6-83.6H335.9z" fill="#383A48"/>   </g>   <path d="M791.7,378.3H398.2c-17.4,0-31.5,14.1-31.5,31.5s14.1,31.5,31.5,31.5h393.6c17.4,0,31.5-14.1,31.5-31.5    S809.1,378.3,791.7,378.3z" fill="#383A48"/>   <g>    <path d="M425.1,63.5c90.8-42.8,125,194.7,138.1,372.5h-97.4C465.8,436,328.5,109,425.1,63.5z" fill="#F3F6E6"/>    <path d="M563.2,441h-97.4c-2,0-3.8-1.2-4.6-3.1c-0.3-0.8-34.7-83.1-56.8-169.9c-30.2-118.7-24-189,18.6-209.1l0,0     c16.3-7.7,31.9-7.4,46.1,0.9c15.2,8.9,29,27.2,41.1,54.5c10.5,23.7,20,54.8,28.2,92.5c13.1,60,23.1,137,29.9,228.7     c0.1,1.4-0.4,2.8-1.3,3.8C565.9,440.4,564.6,441,563.2,441z M469.2,431h88.7c-6.7-88.9-16.5-163.6-29.3-222     C511.5,130.9,489.8,83.6,464,68.6c-11.4-6.7-23.4-6.8-36.8-0.5c-25.8,12.2-49.1,56.3-13.1,197.5     C433.6,342.2,462.8,415.3,469.2,431z M425.1,63.5L425.1,63.5L425.1,63.5z" fill="#383A48"/>   </g>   <g>    <path d="M764.8,63.5C674,20.7,639.8,258.2,626.7,436h97.4C724.1,436,861.4,109,764.8,63.5z" fill="#F3F6E6"/>    <path d="M724.1,441h-97.4c-1.4,0-2.7-0.6-3.7-1.6c-0.9-1-1.4-2.4-1.3-3.8c6.7-91.8,16.8-168.7,29.9-228.7     c8.2-37.7,17.7-68.8,28.2-92.5c12.1-27.3,25.9-45.6,41.1-54.5c14.3-8.3,29.8-8.6,46.1-0.9c42.5,20,48.8,90.4,18.6,209.1     c-22.1,86.8-56.5,169.1-56.8,169.9C727.9,439.8,726.1,441,724.1,441z M724.1,436L724.1,436L724.1,436z M632.1,431h88.7     c6.4-15.7,35.6-88.8,55.1-165.5c35.9-141.2,12.7-185.3-13.2-197.4c-13.4-6.3-25.4-6.1-36.8,0.5c-25.8,15.1-47.5,62.3-64.5,140.5     C648.6,267.4,638.8,342.1,632.1,431z" fill="#383A48"/>   </g>   <g>    <path d="M663.2,436l52.4-234.3c0.6-2.8,2.5-4.7,4.7-4.7l0,0c3.1,0,5.4,3.8,4.8,7.9L689.8,436" fill="#E0719E"/>   </g>   <g>    <path d="M526.7,436l-52.4-234.3c-0.6-2.8-2.5-4.7-4.7-4.7l0,0c-3.1,0-5.4,3.8-4.8,7.9L500.1,436" fill="#E0719E"/>   </g>   <g>    <path d="M744.9,441H435.7c-2.8,0-5-2.2-5-5s2.2-5,5-5h309.2c2.8,0,5,2.2,5,5S747.7,441,744.9,441z" fill="#383A48"/>   </g>  </g>  <g>   <g>    <path d="M5.8,265.9L322.6,54.8c2.3-1.5,5.4-0.9,6.9,1.4c1.5,2.2,0.9,5.2-1.2,6.8L20.7,287.3c-5.8,4.2-14,3-18.2-2.9     c-4.2-5.8-3-14,2.9-18.2C5.5,266.1,5.7,266,5.8,265.9z" fill="#383A48"/>   </g>   <g>    <line x1="309.6" y1="5" x2="312.2" y2="24.4" fill="#4053FA"/>    <path d="M312.2,29.4c-2.5,0-4.6-1.8-5-4.3l-2.6-19.4c-0.4-2.7,1.6-5.3,4.3-5.6c2.7-0.4,5.3,1.6,5.6,4.3l2.6,19.4     c0.4,2.7-1.6,5.3-4.3,5.6C312.6,29.4,312.4,29.4,312.2,29.4z" fill="#4053FA"/>   </g>   <g>    <line x1="345.1" y1="6.1" x2="338.5" y2="24.5" fill="#4053FA"/>    <path d="M338.5,29.5c-0.6,0-1.1-0.1-1.7-0.3c-2.6-0.9-3.9-3.8-3-6.4l6.6-18.4c0.9-2.6,3.8-4,6.4-3     c2.6,0.9,3.9,3.8,3,6.4l-6.6,18.4C342.5,28.2,340.6,29.5,338.5,29.5z" fill="#4053FA"/>   </g>   <g>    <line x1="377.8" y1="37.8" x2="359.7" y2="45.2" fill="none"/>    <path d="M359.7,50.2c-2,0-3.8-1.2-4.6-3.1c-1-2.6,0.2-5.5,2.8-6.5l18.1-7.3c2.6-1,5.5,0.2,6.5,2.8s-0.2,5.5-2.8,6.5     l-18.1,7.3C360.9,50.1,360.3,50.2,359.7,50.2z" fill="#4053FA"/>   </g>   <g>    <line x1="374.6" y1="86.6" x2="356.7" y2="78.7" fill="none"/>    <path d="M374.6,91.6c-0.7,0-1.4-0.1-2-0.4l-17.9-7.9c-2.5-1.1-3.7-4.1-2.6-6.6c1.1-2.5,4.1-3.7,6.6-2.6l17.9,7.9     c2.5,1.1,3.7,4.1,2.6,6.6C378.3,90.4,376.5,91.6,374.6,91.6z" fill="#4053FA"/>   </g>  </g>  <path d="M202.4,588c-11.4,0-12.6-10.9-12.6-15.5c0-2.8-2.2-5-5-5s-5,2.2-5,5c0,4.7-1.2,15.5-12.6,15.5   c-2.8,0-5,2.2-5,5s2.2,5,5,5c11.4,0,12.6,10.9,12.6,15.5c0,2.8,2.2,5,5,5s5-2.2,5-5c0-4.7,1.2-15.5,12.6-15.5c2.8,0,5-2.2,5-5   S205.1,588,202.4,588z" fill="#383A48"/>  <path d="M607.9,122.6c-11.4,0-12.6-10.9-12.6-15.5c0-2.8-2.2-5-5-5s-5,2.2-5,5c0,4.7-1.2,15.5-12.6,15.5   c-2.8,0-5,2.2-5,5s2.2,5,5,5c11.4,0,12.6,10.9,12.6,15.5c0,2.8,2.2,5,5,5s5-2.2,5-5c0-4.7,1.2-15.5,12.6-15.5c2.8,0,5-2.2,5-5   S610.7,122.6,607.9,122.6z" fill="#F6E049"/>  <path d="M977.8,576.7c-11.4,0-12.6-10.9-12.6-15.5c0-2.8-2.2-5-5-5s-5,2.2-5,5c0,4.7-1.2,15.5-12.6,15.5   c-2.8,0-5,2.2-5,5s2.2,5,5,5c11.4,0,12.6,10.9,12.6,15.5c0,2.8,2.2,5,5,5s5-2.2,5-5c0-4.7,1.2-15.5,12.6-15.5c2.8,0,5-2.2,5-5   S980.6,576.7,977.8,576.7z" fill="#F6E049"/>  <g>   <path d="M928.4,776.2H247.3c-2.8,0-5-2.2-5-5s2.2-5,5-5h681.1c2.8,0,5,2.2,5,5S931.1,776.2,928.4,776.2z" fill="#383A48"/>  </g>  <g>   <path d="M11.4,443.6c-0.3,0-0.6,0-0.9-0.1c-2.7-0.5-4.5-3.1-4-5.8l3.2-17.9c1.3-7.2,5.3-13.5,11.4-17.6    c6-4.2,13.3-5.7,20.5-4.4l16.3,3c9.4,1.7,18.5-4.6,20.2-14l3-16.3c1.3-7.2,5.3-13.5,11.4-17.6c6-4.2,13.3-5.7,20.5-4.4l16.3,3    c4.6,0.8,9.2-0.2,13-2.8s6.4-6.6,7.2-11.2l3-16.3c1.3-7.2,5.3-13.5,11.4-17.6c6-4.2,13.3-5.7,20.5-4.4l16.4,3    c2.7,0.5,4.5,3.1,4,5.8c-0.5,2.7-3.1,4.5-5.8,4l-16.4-3c-4.6-0.8-9.2,0.2-13,2.8c-3.8,2.6-6.4,6.6-7.2,11.2l-3,16.3    c-1.3,7.2-5.3,13.5-11.4,17.6c-6,4.2-13.3,5.7-20.5,4.4l-16.3-3c-4.6-0.8-9.2,0.2-13,2.8s-6.4,6.6-7.2,11.2l-3,16.3    c-1.3,7.2-5.3,13.5-11.4,17.6c-6,4.2-13.3,5.7-20.5,4.4l-16.3-3c-4.6-0.8-9.2,0.2-13,2.8s-6.4,6.6-7.2,11.2l-3.2,17.9    C15.8,441.9,13.7,443.6,11.4,443.6z" fill="#383A48"/>  </g>  <g>   <path d="M894.2,203.2c-1.2,0-2.5-0.5-3.5-1.4c-2-1.9-2.1-5.1-0.1-7.1l41.1-42.9c1.9-2,5.1-2.1,7.1-0.1    c2,1.9,2.1,5.1,0.1,7.1l-41.1,42.9C896.9,202.7,895.5,203.2,894.2,203.2z" fill="#F3F6E6"/>  </g>  <g>   <path d="M852.1,156.6c-0.8,0-1.6-0.2-2.4-0.6c-2.4-1.3-3.3-4.3-2-6.8l29-53.6c1.3-2.4,4.3-3.3,6.8-2    c2.4,1.3,3.3,4.3,2,6.8l-29,53.6C855.6,155.6,853.9,156.6,852.1,156.6z" fill="#F3F6E6"/>  </g> </g> </g></g>
              </svg>