<svg xmlns="http://www.w3.org/2000/svg" width="1041.333" height="781">
  <g clip-path="url(#a)" transform="matrix(.787 0 0 .787 327.889 215.75)">
    <defs>
      <clipPath id="a">
        <path d="M0 0h496.5v496.4H0z" />
      </clipPath>
    </defs>
    <path
      d="M472.4 342.6c-1.4 3.4-2.9 6.8-4.5 10.1-15.1 31.8-37.3 60.7-66.1 84-.7.6-1.4 1.1-2.1 1.7-4.1 3.3-8.4 6.5-12.8 9.5-14.9 10.3-30.5 18.8-46.6 25.3-12 4.9-24.2 8.8-36.6 11.7C242.5 499.2 177.8 489 124 457c-29.1-17.3-55-40.9-75.5-70.5-3.7-5.4-7.2-10.8-10.4-16.3-54.7-93.9-39.7-211.7 33.2-289C82.7 69.1 95.6 58 109.8 48.1c3.9-2.7 7.9-5.3 11.9-7.8C190.6-1.8 273.1-5.6 343.2 24c3 1.3 6 2.6 8.9 4 24.2 11.4 46.7 26.9 66.4 46.2 10.8 10.6 20.7 22.3 29.7 35.2 7.1 10.2 13.3 20.8 18.6 31.6 3.5 7.1 6.6 14.4 9.4 21.7 6.1 16.2 10.3 32.9 12.8 49.7 6.4 44.3.6 89.4-16.6 130.2z"
      fill="#AAC6FC"
    />
    <path
      d="M248.6 496.4c-12.8 0-25.6-1-38.4-3-31.6-4.9-61.5-15.7-88.9-31.9-30.6-18.2-56.6-42.4-77-71.9-3.7-5.4-7.3-11-10.6-16.7C6.5 326.1-4.6 273 1.8 219.1 8 166.4 31.4 116.3 67.6 78c11.8-12.5 25-23.9 39.3-33.8 3.9-2.7 8-5.4 12.2-7.9 68-41.5 152.5-47.7 226-16.6 3 1.3 6.1 2.6 9.1 4 25.2 11.9 48 27.7 67.8 47.2 11.1 10.9 21.3 23 30.3 35.9 7.1 10.3 13.5 21.1 19 32.3 3.5 7.2 6.8 14.6 9.6 22.2 6.1 16.3 10.5 33.4 13 50.7v.1c6.6 44.9.7 90.7-16.9 132.6-1.4 3.4-3 6.9-4.6 10.4-15.9 33.5-38.6 62.3-67.4 85.7l-.1.1c-.7.6-1.5 1.2-2.2 1.7-4 3.2-8.4 6.5-13 9.7-14.9 10.3-30.9 19-47.6 25.9-12 4.9-24.6 8.9-37.3 11.9-18.6 4.1-37.3 6.3-56.2 6.3zM248.3 10c-43.2 0-86.3 11.7-124 34.7-4 2.5-8 5-11.7 7.6-13.7 9.5-26.4 20.4-37.8 32.4-34.7 36.8-57.1 84.9-63.1 135.4-6.1 51.7 4.5 102.7 30.6 147.6 3.2 5.4 6.6 10.8 10.2 16 19.6 28.4 44.5 51.6 73.9 69 26.3 15.6 55 25.9 85.3 30.6 30.4 4.7 60.9 3.6 90.7-3.3 12.2-2.9 24.3-6.7 35.8-11.4 16-6.5 31.4-14.9 45.7-24.8 4.4-3.1 8.6-6.2 12.5-9.3.7-.5 1.3-1.1 2-1.6l.1-.1c27.7-22.4 49.5-50.1 64.8-82.3 1.6-3.3 3.1-6.6 4.4-9.9 16.9-40.2 22.5-84.3 16.2-127.3v-.1c-2.4-16.6-6.6-32.9-12.5-48.5-2.7-7.2-5.8-14.4-9.2-21.3-5.2-10.7-11.4-21.1-18.2-31-8.6-12.4-18.4-24-29.1-34.5-19-18.7-40.9-33.9-65-45.3-2.9-1.4-5.8-2.7-8.7-3.9C311.5 16.2 279.8 10 248.3 10z"
      fill="#383A48"
    />
    <path
      d="M472.4 342.6l-7.5-2.8c-22.1-8.4-46.4 5.1-51.1 28.3l-14.2 70.4c-4.1 3.3-8.4 6.5-12.8 9.5-14.9 10.3-30.5 18.8-46.6 25.3l-37.1-67.8c-9-16.4-13-35-11.7-53.6l1.8-25.8c2.6-36.2 25-68 58.3-82.5l127.3-55.5 10.2 24.5c6.4 44.1.6 89.2-16.6 130z"
      fill="#E0719E"
    />
    <path
      d="M340.2 478.3c-1.8 0-3.5-1-4.4-2.6l-37.1-67.8c-9.4-17.3-13.7-36.8-12.3-56.4l1.8-25.8c2.7-38.2 26.2-71.4 61.2-86.7l127.3-55.5c1.2-.5 2.6-.6 3.9-.1 1.2.5 2.2 1.5 2.8 2.7l10.2 24.5c.2.4.3.9.3 1.3 6.6 44.9.7 90.7-16.9 132.6-1 2.5-3.9 3.7-6.4 2.7l-7.5-2.8c-9.2-3.5-19.3-2.7-27.9 2-8.6 4.7-14.6 13-16.5 22.6l-14.2 70.4c-.2 1.2-.9 2.2-1.8 2.9-4.1 3.3-8.5 6.5-13.1 9.7-14.9 10.3-30.9 19-47.6 25.9-.5.3-1.2.4-1.8.4zm135.9-283.6l-122.6 53.5c-31.7 13.8-52.8 43.8-55.3 78.3l-1.8 25.8c-1.2 17.7 2.6 35.3 11.1 50.9l34.9 63.8c14.5-6.3 28.5-14 41.6-23.1 3.9-2.7 7.6-5.4 11.1-8.2l13.8-68.6c2.5-12.5 10.3-23.2 21.5-29.3 11.1-6.2 24.4-7.1 36.3-2.6l3 1.1c15.4-38.8 20.4-81 14.5-122.3l-8.1-19.3z"
      fill="#383A48"
    />
    <path
      d="M120.6 327.4l-26.8 18L38 370.3c-54.7-93.9-39.7-211.7 33.2-289l50.5 87.4 26.5 75.8c10.7 30.7-.6 64.7-27.6 82.9z"
      fill="#E0719E"
    />
    <path
      d="M38 375.3c-1.7 0-3.4-.9-4.3-2.5C6.5 326-4.6 272.9 1.8 219 8 166.3 31.4 116.2 67.6 77.9c1.1-1.1 2.6-1.7 4.2-1.5s3 1.1 3.7 2.5l50.5 87.4c.2.3.3.6.4.9l26.5 75.8c11.4 32.8-.7 69.3-29.5 88.7l-26.8 18c-.2.2-.5.3-.8.4L40 374.9c-.6.3-1.3.4-2 .4zM70.3 89.7c-32.1 36.1-52.8 82.2-58.6 130.4-5.9 50.2 3.9 99.8 28.4 143.7l51.3-22.9 26.4-17.8c25-16.9 35.6-48.6 25.6-77.1l-26.3-75.4-46.8-80.9zm50.3 237.7z"
      fill="#383A48"
    />
    <g>
      <path
        d="M395.4 68.5c-9.9 38-66.4 56.1-126.1 40.5-58-15.2-97.7-56.6-90.8-93.8C255.8-8 336.6 9.1 396.9 55.6c.1 4.3-.4 8.6-1.5 12.9z"
        fill="#F3F6E6"
      />
      <path
        d="M311.8 119.6c-14.2 0-29-1.9-43.8-5.8-60.4-15.8-101.8-59.5-94.5-99.5.3-1.8 1.7-3.3 3.5-3.9 76.3-22.9 159.6-7.5 222.9 41.2 1.2.9 1.9 2.3 1.9 3.8.1 4.9-.4 9.7-1.6 14.3-5.3 20.1-22.2 35.6-47.7 43.8-12.5 4.1-26.3 6.1-40.7 6.1zM182.9 19.1c-1.7 15.6 5.4 32.4 20.2 47.8 16.4 16.9 40.3 30.2 67.4 37.3 28 7.3 56 7.3 78.9 0 22.1-7.1 36.7-20.2 41.1-36.8.8-3 1.2-6.1 1.3-9.2C332.2 13 254.5-1.4 182.9 19.1z"
        fill="#383A48"
      />
    </g>
    <g>
      <circle cx="438.1" cy="381.1" r="4.1" fill="#383A48" />
      <circle cx="417.7" cy="381.1" r="4.1" fill="#383A48" />
      <circle cx="417.7" cy="401.5" r="4.1" fill="#383A48" />
      <circle cx="397.3" cy="401.5" r="4.1" fill="#383A48" />
      <circle cx="397.3" cy="421.9" r="4.1" fill="#383A48" />
      <circle cx="376.9" cy="401.5" r="4.1" fill="#383A48" />
      <circle cx="376.9" cy="421.9" r="4.1" fill="#383A48" />
      <circle cx="376.9" cy="442.3" r="4.1" fill="#383A48" />
      <circle cx="356.4" cy="401.5" r="4.1" fill="#383A48" />
      <circle cx="356.4" cy="421.9" r="4.1" fill="#383A48" />
      <circle cx="356.4" cy="442.3" r="4.1" fill="#383A48" />
      <circle cx="336" cy="401.5" r="4.1" fill="#383A48" />
      <circle cx="336" cy="421.9" r="4.1" fill="#383A48" />
      <circle cx="336" cy="442.3" r="4.1" fill="#383A48" />
      <circle cx="336" cy="462.8" r="4.1" fill="#383A48" />
      <circle cx="315.6" cy="401.5" r="4.1" fill="#383A48" />
      <circle cx="315.6" cy="421.9" r="4.1" fill="#383A48" />
      <circle cx="315.6" cy="442.3" r="4.1" fill="#383A48" />
      <circle cx="315.6" cy="462.8" r="4.1" fill="#383A48" />
      <circle cx="295.2" cy="401.5" r="4.1" fill="#383A48" />
      <circle cx="295.2" cy="421.9" r="4.1" fill="#383A48" />
      <circle cx="295.2" cy="442.3" r="4.1" fill="#383A48" />
      <circle cx="295.2" cy="462.8" r="4.1" fill="#383A48" />
      <circle cx="274.7" cy="401.5" r="4.1" fill="#383A48" />
      <circle cx="274.7" cy="421.9" r="4.1" fill="#383A48" />
      <circle cx="274.7" cy="442.3" r="4.1" fill="#383A48" />
      <circle cx="274.7" cy="462.8" r="4.1" fill="#383A48" />
      <circle cx="254.3" cy="381.1" r="4.1" fill="#383A48" />
      <circle cx="254.3" cy="401.5" r="4.1" fill="#383A48" />
      <circle cx="254.3" cy="421.9" r="4.1" fill="#383A48" />
      <circle cx="254.3" cy="442.3" r="4.1" fill="#383A48" />
      <circle cx="254.3" cy="462.8" r="4.1" fill="#383A48" />
      <circle cx="254.3" cy="483.2" r="4.1" fill="#383A48" />
      <circle cx="233.9" cy="381.1" r="4.1" fill="#383A48" />
      <circle cx="233.9" cy="401.5" r="4.1" fill="#383A48" />
      <circle cx="233.9" cy="421.9" r="4.1" fill="#383A48" />
      <circle cx="233.9" cy="442.3" r="4.1" fill="#383A48" />
      <circle cx="233.9" cy="462.8" r="4.1" fill="#383A48" />
      <circle cx="233.9" cy="483.2" r="4.1" fill="#383A48" />
      <circle cx="213.5" cy="381.1" r="4.1" fill="#383A48" />
      <circle cx="213.5" cy="401.5" r="4.1" fill="#383A48" />
      <circle cx="213.5" cy="421.9" r="4.1" fill="#383A48" />
      <circle cx="213.5" cy="442.3" r="4.1" fill="#383A48" />
      <circle cx="213.5" cy="462.8" r="4.1" fill="#383A48" />
      <circle cx="213.5" cy="483.2" r="4.1" fill="#383A48" />
      <circle cx="193" cy="360.6" r="4.1" fill="#383A48" />
      <circle cx="193" cy="381.1" r="4.1" fill="#383A48" />
      <circle cx="193" cy="401.5" r="4.1" fill="#383A48" />
      <circle cx="193" cy="421.9" r="4.1" fill="#383A48" />
      <circle cx="193" cy="442.3" r="4.1" fill="#383A48" />
      <circle cx="193" cy="462.8" r="4.1" fill="#383A48" />
      <circle cx="172.6" cy="340.2" r="4.1" fill="#383A48" />
      <circle cx="172.6" cy="360.6" r="4.1" fill="#383A48" />
      <circle cx="172.6" cy="381.1" r="4.1" fill="#383A48" />
      <circle cx="172.6" cy="401.5" r="4.1" fill="#383A48" />
      <circle cx="172.6" cy="421.9" r="4.1" fill="#383A48" />
      <circle cx="172.6" cy="442.3" r="4.1" fill="#383A48" />
      <circle cx="172.6" cy="462.8" r="4.1" fill="#383A48" />
      <circle cx="152.2" cy="319.8" r="4.1" fill="#383A48" />
      <circle cx="152.2" cy="340.2" r="4.1" fill="#383A48" />
      <circle cx="152.2" cy="360.6" r="4.1" fill="#383A48" />
      <circle cx="152.2" cy="381.1" r="4.1" fill="#383A48" />
      <circle cx="152.2" cy="401.5" r="4.1" fill="#383A48" />
      <circle cx="152.2" cy="421.9" r="4.1" fill="#383A48" />
      <circle cx="152.2" cy="442.3" r="4.1" fill="#383A48" />
      <circle cx="152.2" cy="462.8" r="4.1" fill="#383A48" />
      <circle cx="131.8" cy="299.4" r="4.1" fill="#383A48" />
      <circle cx="131.8" cy="319.8" r="4.1" fill="#383A48" />
      <circle cx="131.8" cy="340.2" r="4.1" fill="#383A48" />
      <circle cx="131.8" cy="360.6" r="4.1" fill="#383A48" />
      <circle cx="131.8" cy="381.1" r="4.1" fill="#383A48" />
      <circle cx="131.8" cy="401.5" r="4.1" fill="#383A48" />
      <circle cx="131.8" cy="421.9" r="4.1" fill="#383A48" />
      <circle cx="131.8" cy="442.3" r="4.1" fill="#383A48" />
      <circle cx="111.3" cy="54.3" r="4.1" fill="#383A48" />
      <circle cx="111.3" cy="258.5" r="4.1" fill="#383A48" />
      <circle cx="111.3" cy="278.9" r="4.1" fill="#383A48" />
      <circle cx="111.3" cy="299.4" r="4.1" fill="#383A48" />
      <circle cx="111.3" cy="319.8" r="4.1" fill="#383A48" />
      <circle cx="111.3" cy="340.2" r="4.1" fill="#383A48" />
      <circle cx="111.3" cy="360.6" r="4.1" fill="#383A48" />
      <circle cx="111.3" cy="381.1" r="4.1" fill="#383A48" />
      <circle cx="111.3" cy="401.5" r="4.1" fill="#383A48" />
      <circle cx="111.3" cy="421.9" r="4.1" fill="#383A48" />
      <circle cx="111.3" cy="442.3" r="4.1" fill="#383A48" />
      <circle cx="90.9" cy="74.7" r="4.1" fill="#383A48" />
      <circle cx="90.9" cy="95.1" r="4.1" fill="#383A48" />
      <circle cx="90.9" cy="115.6" r="4.1" fill="#383A48" />
      <circle cx="90.9" cy="136" r="4.1" fill="#383A48" />
      <circle cx="90.9" cy="156.4" r="4.1" fill="#383A48" />
      <circle cx="90.9" cy="176.8" r="4.1" fill="#383A48" />
      <circle cx="90.9" cy="197.2" r="4.1" fill="#383A48" />
      <circle cx="90.9" cy="217.7" r="4.1" fill="#383A48" />
      <circle cx="90.9" cy="238.1" r="4.1" fill="#383A48" />
      <circle cx="90.9" cy="258.5" r="4.1" fill="#383A48" />
      <circle cx="90.9" cy="278.9" r="4.1" fill="#383A48" />
      <circle cx="90.9" cy="299.4" r="4.1" fill="#383A48" />
      <circle cx="90.9" cy="319.8" r="4.1" fill="#383A48" />
      <circle cx="90.9" cy="340.2" r="4.1" fill="#383A48" />
      <circle cx="90.9" cy="360.6" r="4.1" fill="#383A48" />
      <circle cx="90.9" cy="381.1" r="4.1" fill="#383A48" />
      <circle cx="90.9" cy="401.5" r="4.1" fill="#383A48" />
      <circle cx="90.9" cy="421.9" r="4.1" fill="#383A48" />
      <circle cx="70.5" cy="95.1" r="4.1" fill="#383A48" />
      <circle cx="70.5" cy="115.6" r="4.1" fill="#383A48" />
      <circle cx="70.5" cy="136" r="4.1" fill="#383A48" />
      <circle cx="70.5" cy="156.4" r="4.1" fill="#383A48" />
      <circle cx="70.5" cy="176.8" r="4.1" fill="#383A48" />
      <circle cx="70.5" cy="197.2" r="4.1" fill="#383A48" />
      <circle cx="70.5" cy="217.7" r="4.1" fill="#383A48" />
      <circle cx="70.5" cy="238.1" r="4.1" fill="#383A48" />
      <circle cx="70.5" cy="258.5" r="4.1" fill="#383A48" />
      <circle cx="70.5" cy="278.9" r="4.1" fill="#383A48" />
      <circle cx="70.5" cy="299.4" r="4.1" fill="#383A48" />
      <circle cx="70.5" cy="319.8" r="4.1" fill="#383A48" />
      <circle cx="70.5" cy="340.2" r="4.1" fill="#383A48" />
      <circle cx="70.5" cy="360.6" r="4.1" fill="#383A48" />
      <circle cx="70.5" cy="381.1" r="4.1" fill="#383A48" />
      <circle cx="70.5" cy="401.5" r="4.1" fill="#383A48" />
      <circle cx="50.1" cy="115.6" r="4.1" fill="#383A48" />
      <circle cx="50.1" cy="136" r="4.1" fill="#383A48" />
      <circle cx="50.1" cy="156.4" r="4.1" fill="#383A48" />
      <circle cx="50.1" cy="176.8" r="4.1" fill="#383A48" />
      <circle cx="50.1" cy="197.2" r="4.1" fill="#383A48" />
      <circle cx="50.1" cy="217.7" r="4.1" fill="#383A48" />
      <circle cx="50.1" cy="238.1" r="4.1" fill="#383A48" />
      <circle cx="50.1" cy="258.5" r="4.1" fill="#383A48" />
      <circle cx="50.1" cy="278.9" r="4.1" fill="#383A48" />
      <circle cx="50.1" cy="299.4" r="4.1" fill="#383A48" />
      <circle cx="50.1" cy="319.8" r="4.1" fill="#383A48" />
      <circle cx="50.1" cy="340.2" r="4.1" fill="#383A48" />
      <circle cx="50.1" cy="360.6" r="4.1" fill="#383A48" />
      <circle cx="50.1" cy="381.1" r="4.1" fill="#383A48" />
      <circle cx="29.6" cy="156.4" r="4.1" fill="#383A48" />
      <circle cx="29.6" cy="176.8" r="4.1" fill="#383A48" />
      <circle cx="29.6" cy="197.2" r="4.1" fill="#383A48" />
      <circle cx="29.6" cy="217.7" r="4.1" fill="#383A48" />
      <circle cx="29.6" cy="238.1" r="4.1" fill="#383A48" />
      <circle cx="29.6" cy="258.5" r="4.1" fill="#383A48" />
      <circle cx="29.6" cy="278.9" r="4.1" fill="#383A48" />
      <circle cx="29.6" cy="299.4" r="4.1" fill="#383A48" />
      <circle cx="29.6" cy="319.8" r="4.1" fill="#383A48" />
      <circle cx="29.6" cy="340.2" r="4.1" fill="#383A48" />
      <circle cx="9.2" cy="217.7" r="4.1" fill="#383A48" />
      <circle cx="9.2" cy="238.1" r="4.1" fill="#383A48" />
      <circle cx="9.2" cy="258.5" r="4.1" fill="#383A48" />
      <circle cx="9.2" cy="278.9" r="4.1" fill="#383A48" />
    </g>
  </g>
  <g>
      <animateMotion
      dur="10s"
      repeatCount="indefinite"
      path="M 40, 160 a 240,240 0 1,0 480,0 a 240, 240 0 1, 0 -480, 0"
    />
  <g clip-path="url(#b)" transform="matrix(.385 0 0 .385 107.599 79.953)">

    <defs>
      <clipPath id="b">
        <path d="M0 0h748.5v746.2H0z" />
      </clipPath>
    </defs>
    <path
      fill="#F3F6E6"
      d="M411.696 468.997l67.882-67.882 67.881 67.882-67.881 67.882z"
    />
    <path
      d="M479.6 541.9c-1.3 0-2.6-.5-3.5-1.5l-67.9-67.9c-2-2-2-5.1 0-7.1l67.9-67.9c2-2 5.1-2 7.1 0l67.9 67.9c2 2 2 5.1 0 7.1l-67.9 67.9c-1.1 1-2.3 1.5-3.6 1.5zM418.8 469l60.8 60.8 60.8-60.8-60.8-60.8-60.8 60.8z"
      fill="#383A48"
    />
    <path
      fill="#F3F6E6"
      d="M479.597 536.893l67.882-67.882 67.881 67.882-67.881 67.882z"
    />
    <path
      d="M547.5 609.8c-1.3 0-2.6-.5-3.5-1.5l-67.9-67.9c-2-2-2-5.1 0-7.1l67.9-67.9c2-2 5.1-2 7.1 0l67.9 67.9c.9.9 1.5 2.2 1.5 3.5s-.5 2.6-1.5 3.5l-67.9 67.9c-1.1 1.1-2.3 1.6-3.6 1.6zm-60.8-72.9l60.8 60.8 60.8-60.8-60.8-60.8-60.8 60.8z"
      fill="#383A48"
    />
    <path
      fill="#F3F6E6"
      d="M547.498 604.789l67.881-67.882 67.882 67.882-67.882 67.882z"
    />
    <path
      d="M615.4 677.7c-1.3 0-2.6-.5-3.5-1.5L544 608.3c-.9-.9-1.5-2.2-1.5-3.5s.5-2.6 1.5-3.5l67.9-67.9c2-2 5.1-2 7.1 0l67.9 67.9c2 2 2 5.1 0 7.1L619 676.3c-1.1.9-2.3 1.4-3.6 1.4zm-60.8-72.9l60.8 60.8 60.8-60.8-60.8-60.8-60.8 60.8z"
      fill="#383A48"
    />
    <path
      fill="#F3F6E6"
      d="M343.184 537.491l67.882-67.882 67.881 67.882-67.881 67.882z"
    />
    <path
      d="M411.1 610.4c-1.3 0-2.6-.5-3.5-1.5L339.7 541c-2-2-2-5.1 0-7.1l67.9-67.9c2-2 5.1-2 7.1 0l67.9 67.9c2 2 2 5.1 0 7.1l-67.9 67.9c-1.1 1-2.4 1.5-3.6 1.5zm-60.9-72.9l60.8 60.8 60.8-60.8-60.8-60.8-60.8 60.8z"
      fill="#383A48"
    />
    <path
      fill="#F3F6E6"
      d="M411.085 605.387l67.882-67.882 67.881 67.882-67.881 67.882z"
    />
    <path
      d="M479 678.3c-1.3 0-2.6-.5-3.5-1.5l-67.9-67.9c-2-2-2-5.1 0-7.1l67.9-67.9c2-2 5.1-2 7.1 0l67.9 67.9c2 2 2 5.1 0 7.1l-67.9 67.9c-1.1 1-2.4 1.5-3.6 1.5zm-60.9-72.9l60.8 60.8 60.8-60.8-60.8-60.8-60.8 60.8z"
      fill="#383A48"
    />
    <g>
      <path
        fill="#F3F6E6"
        d="M478.932 673.254l67.882-67.882 67.881 67.882-67.881 67.881z"
      />
      <path
        d="M546.9 746.2c-1.3 0-2.6-.5-3.5-1.5l-67.9-67.9c-2-2-2-5.1 0-7.1l67.9-67.9c2-2 5.1-2 7.1 0l67.9 67.9c2 2 2 5.1 0 7.1l-67.9 67.9c-1.1 1-2.4 1.5-3.6 1.5zM486 673.3l60.8 60.8 60.8-60.8-60.8-60.8-60.8 60.8z"
        fill="#383A48"
      />
    </g>
    <g>
      <path fill="none" d="M411.1 469.6l-49.7-49.7" />
      <path
        d="M411.1 474.6c-1.3 0-2.6-.5-3.5-1.5l-49.7-49.7c-2-2-2-5.1 0-7.1s5.1-2 7.1 0l49.7 49.7c2 2 2 5.1 0 7.1-1.1 1-2.4 1.5-3.6 1.5z"
        fill="#383A48"
      />
    </g>
    <g>
      <path
        fill="#F3F6E6"
        d="M209.292 266.475l67.881-67.882 67.882 67.882-67.882 67.881z"
      />
      <path
        d="M277.2 339.5c-1.3 0-2.6-.5-3.5-1.5l-67.9-67.9c-2-2-2-5.1 0-7.1l67.9-67.9c2-2 5.1-2 7.1 0l67.9 67.9c2 2 2 5.1 0 7.1L280.8 338c-1.1 1-2.4 1.5-3.6 1.5zm-60.9-72.9l60.8 60.8 60.8-60.8-60.8-60.8-60.8 60.8z"
        fill="#383A48"
      />
      <path
        fill="#F3F6E6"
        d="M141.384 198.572l67.882-67.882 67.882 67.882-67.882 67.881z"
      />
      <path
        d="M209.3 271.6c-1.3 0-2.6-.5-3.5-1.5l-67.9-67.9c-.9-.9-1.5-2.2-1.5-3.5s.5-2.6 1.5-3.5l67.9-67.9c2-2 5.1-2 7.1 0l67.9 67.9c2 2 2 5.1 0 7.1l-67.9 67.9c-1.1.9-2.3 1.4-3.6 1.4zm-60.9-72.9l60.8 60.8 60.8-60.8-60.8-60.8-60.8 60.8z"
        fill="#383A48"
      />
      <path
        fill="#F3F6E6"
        d="M73.518 130.81L141.4 62.93l67.882 67.882-67.882 67.881z"
      />
      <path
        d="M141.4 203.7c-1.3 0-2.6-.5-3.5-1.5L70 134.3c-2-2-2-5.1 0-7.1l67.9-67.9c2-2 5.1-2 7.1 0l67.9 67.9c.9.9 1.5 2.2 1.5 3.5s-.5 2.6-1.5 3.5L145 202.1c-1.1 1.1-2.3 1.6-3.6 1.6zm-60.8-72.9l60.8 60.8 60.8-60.8L141.4 70l-60.8 60.8z"
        fill="#383A48"
      />
      <path
        fill="#F3F6E6"
        d="M140.788 335.085l67.882-67.882 67.881 67.882-67.881 67.881z"
      />
      <path
        d="M208.6 408c-1.3 0-2.6-.5-3.5-1.5l-67.9-67.9c-2-2-2-5.1 0-7.1l67.9-67.9c2-2 5.1-2 7.1 0l67.9 67.9c2 2 2 5.1 0 7.1l-67.9 67.9c-1 1-2.3 1.5-3.6 1.5zm-60.8-72.9l60.8 60.8 60.8-60.8-60.8-60.8-60.8 60.8z"
        fill="#383A48"
      />
      <path
        d="M383.9 298.3L316 230.4c-2-2-5.1-2-7.1 0L241 298.3l-.3.3-.3.3-67.9 67.9c-2 2-2 5.1 0 7.1l67.9 67.9c1 1 2.3 1.5 3.5 1.5s2.6-.5 3.5-1.5l67.9-67.9.3-.3.3-.3 67.9-67.9c2-2 2-5.1.1-7.1zM519.6 434.1l-67.9-67.9c-2-2-5.1-2-7.1 0l-67.9 67.9-.3.3-.3.3-67.9 67.9c-.9.9-1.5 2.2-1.5 3.5s.5 2.6 1.5 3.5l67.9 67.9c1 1 2.3 1.5 3.5 1.5s2.6-.5 3.5-1.5l67.9-67.9.3-.3.3-.3 67.9-67.9c2.1-1.9 2.1-5.1.1-7z"
        fill="#383A48"
      />
      <g>
        <path
          fill="#F3F6E6"
          d="M72.88 267.182l67.882-67.882 67.882 67.882-67.882 67.882z"
        />
        <path
          d="M140.8 340.1c-1.3 0-2.6-.5-3.5-1.5l-67.9-67.9c-2-2-2-5.1 0-7.1l67.9-67.9c2-2 5.1-2 7.1 0l67.9 67.9c2 2 2 5.1 0 7.1l-67.9 67.9c-1.1 1-2.4 1.5-3.6 1.5zm-60.9-72.9l60.8 60.8 60.8-60.8-60.8-60.8-60.8 60.8z"
          fill="#383A48"
        />
      </g>
      <g>
        <path
          fill="#F3F6E6"
          d="M5.015 199.42l67.881-67.88 67.882 67.88-67.882 67.882z"
        />
        <path
          d="M72.9 272.2c-1.3 0-2.6-.5-3.5-1.5L1.5 202.8c-2-2-2-5.1 0-7.1l67.9-67.9c2-2 5.1-2 7.1 0l67.9 67.9c2 2 2 5.1 0 7.1l-67.9 67.9c-1.1 1-2.4 1.5-3.6 1.5zM12 199.3l60.8 60.8 60.8-60.8-60.8-60.8L12 199.3z"
          fill="#383A48"
        />
      </g>
      <g>
        <path fill="none" d="M276.5 335.1l49.7 49.7" />
        <path
          d="M326.2 389.8c-1.3 0-2.6-.5-3.5-1.5L273 338.6c-2-2-2-5.1 0-7.1s5.1-2 7.1 0l49.7 49.7c2 2 2 5.1 0 7.1-1 1-2.3 1.5-3.6 1.5z"
          fill="#383A48"
        />
      </g>
    </g>
    <g>
      <path
        fill="#F3F6E6"
        d="M76.924 537.278l48.365-48.366 134.137 134.137-48.366 48.366z"
      />
      <path
        d="M211.2 676.4c-1.3 0-2.6-.5-3.5-1.5L73.5 540.7c-2-2-2-5.1 0-7.1l48.3-48.3c.9-.9 2.2-1.5 3.5-1.5s2.6.5 3.5 1.5l134.3 134.2c2 2 2 5.1 0 7.1l-48.3 48.3c-1 1-2.2 1.5-3.6 1.5zM84.1 537.2l127.1 127.1 41.3-41.3-127.1-127-41.3 41.2z"
        fill="#383A48"
      />
    </g>
    <g>
      <path
        fill="#F6E049"
        d="M110.363 503.826l99.701-99.702 134.137 134.137-99.701 99.701z"
      />
      <path
        d="M244.6 643.1c-1.3 0-2.6-.5-3.5-1.5L106.9 507.4c-2-2-2-5.1 0-7.1l99.7-99.7c.9-.9 2.2-1.5 3.5-1.5s2.6.5 3.5 1.5l134.2 134.2c.9.9 1.5 2.2 1.5 3.5s-.5 2.6-1.5 3.5l-99.7 99.8c-1 1-2.3 1.5-3.5 1.5zM117.5 503.9L244.6 631l92.6-92.6-127.1-127.1-92.6 92.6z"
        fill="#383A48"
      />
    </g>
    <g>
      <path
        d="M548.2 334.4L344.1 538.5 210 404.3l204.1-204.1c13.2-13.2 30.3-20.2 47.6-21 19.4-.9 39.1 6.1 54 21l32.6 32.6c14.8 14.8 21.8 34.5 21 54-.9 17.3-7.9 34.4-21.1 47.6z"
        fill="#AAC6FC"
      />
      <path
        d="M344.1 543.5c-1.3 0-2.6-.5-3.5-1.5L206.4 407.8c-2-2-2-5.1 0-7.1l204.1-204.1c13.6-13.6 31.7-21.6 50.9-22.4 21.5-1 42.5 7.2 57.7 22.4l32.6 32.6c15.2 15.2 23.4 36.2 22.4 57.7-.9 19.2-8.8 37.3-22.4 50.9l-3.5-3.5 3.5 3.5-204 204.2c-1 1-2.2 1.5-3.6 1.5zM217 404.3l127.1 127.1 200.6-200.6c11.8-11.8 18.8-27.6 19.5-44.3.8-18.7-6.3-37-19.5-50.2l-32.6-32.6c-13.2-13.2-31.5-20.3-50.2-19.5-16.7.7-32.4 7.7-44.3 19.5L217 404.3z"
        fill="#383A48"
      />
    </g>
    <path
      d="M551.8 229.3l-32.6-32.6c-15.2-15.2-36.2-23.4-57.7-22.4-1.7.1-3.2 1-4 2.4-.9 1.4-1 3.2-.3 4.7 10.6 23.9 25.8 45.8 45.1 65 19.2 19.2 41.1 34.4 65 45.1.6.3 1.3.4 2 .4.9 0 1.8-.3 2.6-.7 1.4-.9 2.3-2.4 2.4-4 .8-21.7-7.3-42.7-22.5-57.9z"
      fill="#383A48"
    />
    <g>
      <path
        d="M612.8 210.3c-.9 0-1.8-.2-2.6-.7-2.4-1.4-3.1-4.5-1.7-6.9l95.7-158.5-158.5 95.7c-2.4 1.4-5.4.7-6.9-1.7-1.4-2.4-.7-5.4 1.7-6.9L716.3 25.1c2-1.2 4.5-.9 6.1.7 1.6 1.6 1.9 4.2.7 6.1l-106 175.9c-.9 1.6-2.6 2.5-4.3 2.5z"
        fill="#383A48"
      />
    </g>
    <g>
      <circle cx="719" cy="29.4" r="24.6" fill="#F3F6E6" />
      <path
        d="M719 59c-7.6 0-15.1-2.9-20.9-8.6-11.5-11.5-11.5-30.3 0-41.8s30.3-11.5 41.8 0 11.5 30.3 0 41.8c-5.7 5.7-13.3 8.6-20.9 8.6zm0-49.1c-5 0-10 1.9-13.8 5.7-7.6 7.6-7.6 20 0 27.7 7.6 7.6 20 7.6 27.7 0s7.6-20 0-27.7c-3.8-3.8-8.9-5.7-13.9-5.7z"
        fill="#383A48"
      />
    </g>
    <g>
      <path
        d="M714.3 268c-56.2 19.2-128.2.4-181.2-52.7-53.1-53.1-71.8-125.1-52.7-181.2L714.3 268z"
        fill="#F3F6E6"
      />
      <path
        d="M668.7 280.4c-15.5 0-31.5-2.3-47.5-6.8-33.7-9.5-65.3-28.4-91.6-54.7-26.3-26.3-45.2-58-54.7-91.6-9.3-33.1-9-65.8.8-94.8.6-1.6 1.9-2.9 3.6-3.3 1.7-.4 3.4.1 4.7 1.3l233.9 233.9c1.2 1.2 1.7 3 1.3 4.7-.4 1.7-1.6 3-3.3 3.6-14.9 5.2-30.8 7.7-47.2 7.7zm-186-236.8c-6.8 25-6.2 52.9 1.7 81 9 32 27.1 62.2 52.1 87.3s55.3 43.1 87.3 52.1c28.1 7.9 56 8.5 81 1.7L482.7 43.6z"
        fill="#383A48"
      />
    </g>
    <g>
      <path
        d="M321.2 427.2c-15.6-15.6-15.6-40.8 0-56.3l41.9-41.9c15.6-15.6 40.8-15.6 56.3 0 15.6 15.6 15.6 40.8 0 56.3l-41.9 41.9c-15.5 15.6-40.7 15.6-56.3 0z"
        fill="#E0719E"
      />
      <path
        d="M349.4 443.9c-11.5 0-23-4.4-31.7-13.1-17.5-17.5-17.5-45.9 0-63.4l41.9-41.9c17.5-17.5 45.9-17.5 63.4 0s17.5 45.9 0 63.4l-41.9 41.9c-8.8 8.7-20.2 13.1-31.7 13.1zm41.8-121.5c-8.9 0-17.8 3.4-24.6 10.2l-41.9 41.9c-13.6 13.6-13.6 35.7 0 49.3s35.7 13.6 49.3 0l41.9-41.9c13.6-13.6 13.6-35.7 0-49.3-6.8-6.8-15.7-10.2-24.7-10.2z"
        fill="#383A48"
      />
    </g>
    <path
      d="M338.2 66.5c-11.4 0-12.6-10.9-12.6-15.5 0-2.8-2.2-5-5-5s-5 2.2-5 5c0 4.7-1.2 15.5-12.6 15.5-2.8 0-5 2.2-5 5s2.2 5 5 5c11.4 0 12.6 10.9 12.6 15.5 0 2.8 2.2 5 5 5s5-2.2 5-5c0-4.7 1.2-15.5 12.6-15.5 2.8 0 5-2.2 5-5s-2.2-5-5-5z"
      fill="#F3F6E6"
    />
  </g>
  </g>
</svg>
